<svg width="24" height="25" viewBox="0 0 24 25" fill="none" xmlns="http://www.w3.org/2000/svg">
<g id="Social icon" clip-path="url(#clip0_197_128)">
<path id="path4" d="M20.8426 17.6449C20.5099 18.4135 20.1161 19.1211 19.6598 19.7715C19.0378 20.6583 18.5286 21.2721 18.1361 21.613C17.5277 22.1724 16.8759 22.459 16.1779 22.4753C15.6768 22.4753 15.0725 22.3327 14.3691 22.0434C13.6633 21.7555 13.0148 21.613 12.4217 21.613C11.7998 21.613 11.1327 21.7555 10.4193 22.0434C9.70469 22.3327 9.12904 22.4834 8.68892 22.4984C8.01957 22.5269 7.35239 22.2322 6.68644 21.613C6.26139 21.2422 5.72974 20.6067 5.09285 19.7063C4.40951 18.7449 3.84772 17.63 3.4076 16.3589C2.93624 14.986 2.69995 13.6565 2.69995 12.3694C2.69995 10.8951 3.01853 9.62345 3.65665 8.55784C4.15815 7.70191 4.82533 7.02672 5.66035 6.53105C6.49537 6.03539 7.39761 5.7828 8.36925 5.76664C8.9009 5.76664 9.59809 5.93109 10.4645 6.25429C11.3284 6.57858 11.8832 6.74303 12.1264 6.74303C12.3082 6.74303 12.9245 6.55074 13.9692 6.16738C14.9571 5.81186 15.7909 5.66466 16.474 5.72264C18.3249 5.87202 19.7155 6.60167 20.6402 7.91619C18.9849 8.9192 18.166 10.324 18.1823 12.1262C18.1972 13.53 18.7065 14.6981 19.7073 15.6256C20.1609 16.0561 20.6674 16.3888 21.231 16.6251C21.1087 16.9795 20.9797 17.319 20.8426 17.6449ZM16.5975 0.940369C16.5975 2.04062 16.1956 3.06792 15.3944 4.01878C14.4275 5.14917 13.258 5.80236 11.9898 5.69929C11.9736 5.56729 11.9642 5.42837 11.9642 5.28239C11.9642 4.22615 12.424 3.09576 13.2406 2.17152C13.6483 1.70356 14.1667 1.31445 14.7955 1.00406C15.4229 0.698295 16.0163 0.529201 16.5744 0.500244C16.5907 0.647331 16.5975 0.794426 16.5975 0.940355V0.940369Z" fill="black"/>
</g>
<defs>
<clipPath id="clip0_197_128">
<rect width="24" height="24" fill="white" transform="translate(0 0.5)"/>
</clipPath>
</defs>
</svg>
